<svg width="1054" height="40" viewBox="0 0 1054 40" fill="none" xmlns="http://www.w3.org/2000/svg">
<path d="M28.8334 16.1091H15.6998V19.9656H25.0018C24.5449 25.3898 19.9861 27.6784 15.6998 27.6784C10.1964 27.6784 5.42451 23.3995 5.42451 17.4026C5.42451 11.5559 9.98545 7.06798 15.6998 7.06798C20.107 7.06798 22.7236 9.87047 22.7236 9.87047L25.4588 7.06798C25.4588 7.06798 21.9634 3.21155 15.579 3.21155C7.46111 3.21155 1.16895 10.0229 1.16895 17.3438C1.16895 24.5449 7.09641 31.5653 15.7921 31.5653C23.453 31.5653 29.0465 26.3523 29.0465 18.6677C29.0465 17.0433 28.8334 16.1091 28.8334 16.1091Z" fill="url(#paint0_linear_314_4645)"/>
<path d="M39.566 13.3068C34.1855 13.3068 30.3232 17.4942 30.3232 22.3457C30.3232 27.2866 34.0625 31.5371 39.6253 31.5371C44.6718 31.5371 48.7757 27.7112 48.7757 22.4677C48.8087 16.4098 44.0061 13.3068 39.566 13.3068ZM39.6275 16.8932C42.2726 16.8932 44.7948 19.0032 44.7948 22.4372C44.7948 25.7819 42.3012 27.9812 39.6275 27.9812C36.6791 27.9812 34.3679 25.66 34.3679 22.4372C34.3679 19.2427 36.6484 16.8932 39.6275 16.8932Z" fill="url(#paint1_linear_314_4645)"/>
<path d="M59.6919 13.3068C54.3115 13.3068 50.4492 17.4942 50.4492 22.3457C50.4492 27.2866 54.1885 31.5371 59.7513 31.5371C64.7977 31.5371 68.9017 27.7112 68.9017 22.4677C68.9039 16.4098 64.0991 13.3068 59.6919 13.3068ZM59.7535 16.8932C62.3986 16.8932 64.9208 19.0032 64.9208 22.4372C64.9208 25.7819 62.4272 27.9812 59.7535 27.9812C56.8051 27.9812 54.4939 25.66 54.4939 22.4372C54.4631 19.2427 56.7721 16.8932 59.7535 16.8932Z" fill="url(#paint2_linear_314_4645)"/>
<path d="M79.3927 13.3068C74.4363 13.3068 70.5762 17.5856 70.5762 22.4067C70.5762 27.8898 75.0756 31.5372 79.3312 31.5372C81.9456 31.5372 83.345 30.5137 84.3776 29.3073V31.1147C84.3776 34.2482 82.4619 36.147 79.5443 36.147C76.7475 36.147 75.3195 34.0675 74.8317 32.8938L71.3056 34.3701C72.5513 36.9919 75.0756 39.7334 79.575 39.7334C84.5007 39.7334 88.2399 36.6609 88.2399 30.2415V13.849H84.3798V15.3863C83.1913 14.1495 81.5501 13.3068 79.3927 13.3068ZM79.7574 16.8932C82.1894 16.8932 84.683 18.9422 84.683 22.4372C84.683 25.9931 82.1894 27.9507 79.7266 27.9507C77.0814 27.9507 74.6494 25.8407 74.6494 22.4677C74.6186 18.9706 77.1737 16.8932 79.7574 16.8932Z" fill="url(#paint3_linear_314_4645)"/>
<path d="M105.354 13.3068C100.703 13.3068 96.7812 16.9825 96.7812 22.4067C96.7812 28.162 101.16 31.5676 105.811 31.5676C109.702 31.5676 112.103 29.4576 113.503 27.561L110.31 25.4509C109.489 26.7161 108.091 27.9529 105.811 27.9529C103.227 27.9529 102.041 26.5375 101.311 25.1809L113.654 20.1159L113.015 18.6396C111.831 15.7173 109.034 13.3068 105.354 13.3068ZM105.536 16.8017C107.208 16.8017 108.425 17.6749 108.942 18.7593L100.703 22.165C100.338 19.5149 102.862 16.8017 105.536 16.8017Z" fill="url(#paint4_linear_314_4645)"/>
<path d="M94.9555 4.14575H90.9131V31.0232H94.9555V4.14575Z" fill="url(#paint5_linear_314_4645)"/>
<path d="M206.935 18.5837C206.893 14.2146 210.504 12.1155 210.666 12.0155C208.634 9.04583 205.477 8.63766 204.352 8.59184C201.666 8.31695 199.108 10.1746 197.742 10.1746C196.376 10.1746 194.273 8.62933 192.045 8.67514C189.112 8.71679 186.409 10.3786 184.897 13.0026C181.857 18.2755 184.123 26.1058 187.092 30.3916C188.546 32.4866 190.27 34.8482 192.544 34.7607C194.735 34.6732 195.56 33.3446 198.2 33.3446C200.841 33.3446 201.587 34.7607 203.898 34.719C206.251 34.6732 207.743 32.5782 209.184 30.4749C210.841 28.0383 211.529 25.6851 211.57 25.5601C211.516 25.5393 206.984 23.8025 206.935 18.5837Z" fill="url(#paint6_linear_314_4645)"/>
<path d="M202.591 5.75143C203.798 4.28951 204.611 2.26114 204.39 0.236938C202.653 0.307744 200.55 1.39482 199.304 2.85674C198.188 4.1479 197.209 6.21375 197.476 8.1963C199.404 8.34624 201.387 7.20919 202.591 5.75143ZM222.166 22.878L220.167 28.9381H217.597L224.14 9.67905H227.139L233.708 28.9381H231.05L228.993 22.878H222.166ZM228.48 20.9329L226.598 15.3893C226.169 14.1315 225.886 12.9902 225.598 11.874H225.544C225.257 13.0152 224.944 14.1856 224.574 15.3601L222.691 20.9288L228.48 20.9329ZM235.657 19.621C235.657 17.8508 235.603 16.4181 235.54 15.1061H237.798L237.914 17.4801H237.968C238.997 15.7933 240.626 14.7937 242.883 14.7937C246.228 14.7937 248.739 17.6217 248.739 21.8243C248.739 26.7973 245.711 29.2505 242.454 29.2505C240.626 29.2505 239.026 28.4508 238.197 27.0805H238.143V34.5942H235.657V19.621ZM238.139 23.307C238.139 23.6819 238.193 24.0192 238.256 24.3358C238.714 26.0767 240.226 27.2804 242.029 27.2804C244.687 27.2804 246.232 25.1105 246.232 21.9367C246.232 19.1628 244.774 16.7971 242.117 16.7971C240.405 16.7971 238.806 18.0258 238.314 19.9125C238.227 20.2249 238.143 20.5997 238.143 20.9413L238.139 23.307ZM251.338 19.621C251.338 17.8508 251.284 16.4181 251.222 15.1061H253.479L253.596 17.4801H253.65C254.679 15.7933 256.307 14.7937 258.565 14.7937C261.909 14.7937 264.421 17.6217 264.421 21.8243C264.421 26.7973 261.393 29.2505 258.136 29.2505C256.307 29.2505 254.708 28.4508 253.879 27.0805H253.825V34.5942H251.338V19.621ZM253.825 23.307C253.825 23.6819 253.879 24.0192 253.941 24.3358C254.399 26.0767 255.911 27.2804 257.715 27.2804C260.372 27.2804 261.917 25.1105 261.917 21.9367C261.917 19.1628 260.46 16.7971 257.802 16.7971C256.09 16.7971 254.491 18.0258 254 19.9125C253.912 20.2249 253.829 20.5997 253.829 20.9413L253.825 23.307ZM267.024 8.65029H269.539V28.9339H267.024V8.65029ZM274.596 22.4782C274.65 25.8768 276.824 27.2804 279.336 27.2804C281.135 27.2804 282.222 26.9681 283.163 26.5682L283.592 28.3675C282.709 28.7674 281.193 29.2255 278.994 29.2255C274.737 29.2255 272.193 26.4266 272.193 22.2533C272.193 18.0799 274.65 14.7937 278.677 14.7937C283.192 14.7937 284.392 18.763 284.392 21.3078C284.392 21.8243 284.338 22.2199 284.304 22.4782H274.596ZM281.968 20.6789C281.997 19.0795 281.31 16.593 278.482 16.593C275.937 16.593 274.825 18.9379 274.625 20.6789H281.968Z" fill="url(#paint7_linear_314_4645)"/>
<path d="M358.758 21.7816C358.758 23.3245 359.097 24.5106 359.54 25.2273C360.121 26.1661 360.987 26.5644 361.869 26.5644C363.008 26.5644 364.049 26.2816 366.057 23.5052C367.665 21.2796 369.561 18.1567 370.835 16.1977L372.994 12.8793C374.494 10.5752 376.23 8.01353 378.221 6.27809C379.846 4.86101 381.599 4.07324 383.364 4.07324C386.326 4.07324 389.148 5.78944 391.307 9.0086C393.67 12.5343 394.818 16.9751 394.818 21.558C394.818 24.2826 394.28 26.2846 393.367 27.866C392.484 29.3956 390.764 30.9238 387.869 30.9238V26.563C390.347 26.563 390.965 24.2856 390.965 21.6794C390.965 17.9657 390.099 13.8433 388.191 10.898C386.838 8.8087 385.083 7.53229 383.152 7.53229C381.065 7.53229 379.385 9.10633 377.497 11.9138C376.493 13.405 375.463 15.2233 374.306 17.2742L373.033 19.5308C370.474 24.0679 369.826 25.1 368.548 26.8058C366.306 29.791 364.391 30.9238 361.871 30.9238C358.881 30.9238 356.99 29.6296 355.819 27.678C354.861 26.0891 354.392 24.0027 354.392 21.6246L358.758 21.7816Z" fill="url(#paint8_linear_314_4645)"/>
<path d="M357.834 9.31818C359.836 6.23229 362.725 4.07483 366.039 4.07483C367.958 4.07483 369.865 4.64344 371.857 6.26931C374.036 8.0477 376.358 10.9752 379.256 15.8024L380.296 17.5349C382.804 21.7136 384.23 23.8622 385.065 24.8765C386.139 26.1781 386.891 26.566 387.868 26.566C390.347 26.566 390.965 24.2886 390.965 21.6825L394.816 21.5611C394.816 24.2857 394.278 26.2876 393.365 27.8691C392.482 29.3987 390.762 30.9268 387.867 30.9268C386.068 30.9268 384.473 30.5359 382.711 28.873C381.356 27.5966 379.771 25.3296 378.553 23.2906L374.928 17.2343C373.11 14.1943 371.441 11.9288 370.474 10.9026C369.434 9.79943 368.1 8.46675 365.968 8.46675C364.243 8.46675 362.778 9.67653 361.552 11.529L357.834 9.31818Z" fill="url(#paint9_linear_314_4645)"/>
<path d="M365.968 8.46368C364.243 8.46368 362.779 9.67346 361.553 11.5259C359.819 14.1424 358.758 18.0382 358.758 21.7816C358.758 23.3245 359.097 24.5106 359.54 25.2273L355.818 27.6794C354.861 26.0891 354.392 24.0027 354.392 21.6246C354.392 17.3023 355.578 12.7964 357.834 9.3166C359.836 6.2307 362.725 4.07324 366.039 4.07324L365.968 8.46368Z" fill="url(#paint10_linear_314_4645)"/>
<path d="M403.304 4.9231H408.355L416.944 20.4592L425.533 4.9231H430.475V30.4528H426.354V10.8861L418.821 24.435H414.955L407.424 10.8861V30.4513H403.303V4.9231H403.304ZM443.385 14.4414C440.43 14.4414 438.651 16.6655 438.225 19.4197H448.254C448.047 16.5826 446.411 14.4414 443.385 14.4414ZM434.14 20.9878C434.14 15.1936 437.884 10.9764 443.457 10.9764C448.938 10.9764 452.211 15.1403 452.211 21.2973V22.4286H438.225C438.721 25.4241 440.71 27.4424 443.914 27.4424C446.471 27.4424 448.069 26.6621 449.585 25.2346L451.774 27.9148C449.711 29.8116 447.089 30.9044 443.768 30.9044C437.735 30.9074 434.14 26.5081 434.14 20.9878ZM457.207 14.8071H453.415V11.434H457.207V5.85449H461.183V11.434H466.944V14.8071H461.183V23.3585C461.183 26.2785 462.116 27.3151 464.411 27.3151C465.458 27.3151 466.059 27.2248 466.946 27.0782V30.4158C465.841 30.7282 464.787 30.8718 463.645 30.8718C459.354 30.8718 457.208 28.5263 457.208 23.8338L457.207 14.8071ZM483.684 18.0885C482.886 16.0732 481.105 14.588 478.487 14.588C475.086 14.588 472.907 17.0016 472.907 20.933C472.907 24.7667 474.912 27.2973 478.324 27.2973C481.006 27.2973 482.92 25.7366 483.684 23.7953V18.0885ZM487.66 30.4513H483.758V27.7889C482.667 29.357 480.683 30.9074 477.468 30.9074C472.297 30.9074 468.843 26.5791 468.843 20.933C468.843 15.2336 472.382 10.9764 477.687 10.9764C480.311 10.9764 482.368 12.0248 483.758 13.8772V11.434H487.66V30.4513Z" fill="url(#paint11_linear_314_4645)"/>
<path d="M633.66 2.15503V24.5101C636.417 24.6384 639.168 24.7935 641.91 24.9764V29.716C637.575 29.427 633.221 29.2064 628.849 29.056V2.15503H633.66ZM671.886 2.15768L665.622 16.68L671.885 32.8407L671.878 32.8438C670.053 32.5835 668.227 32.3378 666.395 32.1023L662.878 23.032L659.328 31.2603C657.646 31.0745 655.961 30.8988 654.272 30.734L660.379 16.5829L654.786 2.15768H659.99L663.121 10.2302L666.603 2.15768H671.886ZM612.34 28.8211L612.34 2.15759H625.768V6.93974H617.15V13.1376H623.671V17.8772H617.15V28.82L612.34 28.8211ZM594.378 6.94014L594.377 2.15734H609.256V6.9398H604.222V28.9508C602.616 28.9928 601.012 29.0426 599.412 29.103V6.94014H594.378ZM577.933 30.4809V2.15815H591.294V6.94029H582.742V13.4181C584.707 13.393 587.5 13.3644 589.238 13.3687V18.1086C587.063 18.0816 584.607 18.1384 582.742 18.157V25.3326C585.585 25.109 588.435 24.9135 591.294 24.7483V29.4883C586.82 29.7461 582.366 30.0781 577.933 30.4809ZM568.496 19.5241L568.496 2.15737H573.306V30.9277C571.548 31.1086 569.793 31.3011 568.041 31.5043L562.47 15.5017V32.1897C560.864 32.3989 559.26 32.6171 557.66 32.8449V2.15768H562.232L568.496 19.5241ZM645.879 30.0019V2.15771H650.689V30.3991C649.088 30.2566 647.485 30.1248 645.879 30.0019Z" fill="url(#paint12_linear_314_4645)"/>
<path d="M812.963 27.2373C806.306 32.1448 796.656 34.763 788.347 34.763C776.697 34.763 766.209 30.454 758.275 23.2877C757.651 22.7242 758.21 21.9561 758.958 22.3951C767.521 27.377 778.109 30.3745 789.045 30.3745C796.421 30.3745 804.535 28.8483 811.996 25.6815C813.123 25.2027 814.066 26.4194 812.963 27.2373Z" fill="url(#paint13_linear_314_4645)"/>
<path d="M815.732 24.0706C814.884 22.9834 810.106 23.5568 807.961 23.8113C807.308 23.8912 807.208 23.3226 807.797 22.9136C811.602 20.2354 817.846 21.0083 818.574 21.906C819.302 22.8088 818.385 29.0676 814.809 32.0549C814.26 32.5137 813.736 32.2693 813.981 31.6611C814.784 29.6562 816.584 25.1626 815.732 24.0706Z" fill="url(#paint14_linear_314_4645)"/>
<path d="M808.111 4.00722V1.40397C808.111 1.01002 808.41 0.745793 808.769 0.745793H820.424C820.798 0.745793 821.097 1.01515 821.097 1.40397V3.63323C821.093 4.00722 820.778 4.4961 820.22 5.26899L814.18 13.8917C816.425 13.8368 818.793 14.171 820.828 15.3181C821.287 15.5773 821.412 15.9564 821.447 16.3304V19.1083C821.447 19.4872 821.028 19.9312 820.589 19.7016C817.003 17.8216 812.24 17.6171 808.276 19.7216C807.872 19.9411 807.448 19.5023 807.448 19.1231V16.4851C807.448 16.0611 807.453 15.338 807.877 14.6947L814.873 4.66045H808.784C808.41 4.66045 808.111 4.39623 808.111 4.00722ZM765.596 20.2504H762.05C761.711 20.2255 761.441 19.971 761.416 19.647V1.44887C761.416 1.08478 761.721 0.795632 762.1 0.795632H765.406C765.75 0.81047 766.025 1.07488 766.049 1.40397V3.78275H766.114C766.977 1.48368 768.598 0.411376 770.782 0.411376C773.001 0.411376 774.388 1.48368 775.385 3.78275C776.243 1.48368 778.193 0.411376 780.283 0.411376C781.769 0.411376 783.395 1.02485 784.387 2.40114C785.509 3.93227 785.28 6.15639 785.28 8.10639L785.275 19.5917C785.275 19.9558 784.97 20.25 784.592 20.25H781.051C780.697 20.2251 780.412 19.9407 780.412 19.5917V9.94683C780.412 9.17889 780.482 7.26388 780.313 6.5357C780.048 5.31388 779.255 4.96976 778.228 4.96976C777.37 4.96976 776.473 5.54329 776.108 6.46094C775.745 7.37859 775.78 8.91448 775.78 9.94683V19.592C775.78 19.9561 775.475 20.2504 775.096 20.2504H771.555C771.196 20.2255 770.917 19.9411 770.917 19.592L770.912 9.94683C770.912 7.91712 771.246 4.92981 768.728 4.92981C766.18 4.92981 766.279 7.84236 766.279 9.94683V19.592C766.279 19.9561 765.974 20.2504 765.596 20.2504ZM831.131 0.411566C836.393 0.411566 839.241 4.92981 839.241 10.6752C839.241 16.2258 836.094 20.6295 831.131 20.6295C825.965 20.6295 823.152 16.1113 823.152 10.4808C823.152 4.81511 826 0.411566 831.131 0.411566ZM831.161 4.12687C828.548 4.12687 828.383 7.68771 828.383 9.90688C828.383 12.1312 828.348 16.8789 831.131 16.8789C833.879 16.8789 834.009 13.0488 834.009 10.7148C834.009 9.1787 833.944 7.3434 833.48 5.88722C833.081 4.6205 832.288 4.12687 831.161 4.12687ZM846.063 20.2504H842.532C842.178 20.2255 841.894 19.9413 841.894 19.592L841.889 1.38914C841.919 1.0551 842.213 0.795632 842.572 0.795632H845.858C846.168 0.81047 846.422 1.0201 846.492 1.3043V4.08692H846.557C847.549 1.59839 848.94 0.411376 851.389 0.411376C852.98 0.411376 854.531 0.984907 855.528 2.55579C856.456 4.01197 856.456 6.46075 856.456 8.2211V19.6765C856.416 19.9957 856.122 20.2502 855.773 20.2502H852.217C851.893 20.2253 851.624 19.9858 851.589 19.6765V9.79218C851.589 7.80241 851.818 4.88987 849.369 4.88987C848.507 4.88987 847.714 5.46834 847.32 6.34604C846.821 7.45811 846.756 8.56541 846.756 9.79218V19.5919C846.751 19.9561 846.442 20.2504 846.063 20.2504ZM805.134 16.9139C804.485 16.0162 803.797 15.288 803.797 13.6273V8.10164C803.797 5.76262 803.962 3.61326 802.236 2.00243C800.875 0.695763 798.62 0.236938 796.895 0.236938C793.523 0.236938 789.753 1.49357 788.965 5.66294C788.88 6.10674 789.205 6.3411 789.494 6.40597L792.93 6.775C793.254 6.75998 793.488 6.44591 793.548 6.12671C793.842 4.69051 795.044 3.99732 796.396 3.99732C797.129 3.99732 797.957 4.26669 798.386 4.91992C798.885 5.64811 798.82 6.64546 798.82 7.48816V7.94699C796.765 8.18134 794.077 8.33105 792.152 9.17889C789.928 10.1365 788.372 12.0964 788.372 14.9739C788.372 18.6596 790.69 20.4996 793.678 20.4996C796.196 20.4996 797.578 19.9063 799.523 17.9211C800.166 18.8538 800.381 19.3077 801.558 20.2852C801.822 20.4249 802.161 20.4098 802.395 20.2006L802.4 20.2105C803.109 19.582 804.395 18.46 805.118 17.8566C805.408 17.6171 805.358 17.2331 805.134 16.9139ZM798.156 15.3181C797.593 16.3156 796.695 16.9289 795.703 16.9289C794.341 16.9289 793.543 15.8916 793.543 14.3605C793.543 11.3383 796.251 10.7897 798.82 10.7897V11.5577C798.82 12.9391 798.855 14.0913 798.156 15.3181ZM758.648 16.9139C758 16.0162 757.312 15.288 757.312 13.6273V8.10164C757.312 5.76262 757.477 3.61326 755.751 2.00243C754.39 0.695763 752.135 0.236938 750.41 0.236938C747.038 0.236938 743.273 1.49357 742.48 5.66294C742.4 6.10674 742.72 6.3411 743.009 6.40597L746.45 6.775C746.769 6.75998 747.003 6.44591 747.063 6.12671C747.358 4.69051 748.565 3.99732 749.916 3.99732C750.644 3.99732 751.472 4.26669 751.906 4.91992C752.4 5.64811 752.335 6.64546 752.335 7.48816V7.94699C750.28 8.18134 747.592 8.33105 745.667 9.17889C743.448 10.1365 741.887 12.0964 741.887 14.9739C741.887 18.6596 744.211 20.4996 747.193 20.4996C749.717 20.4996 751.093 19.9063 753.038 17.9211C753.686 18.8538 753.896 19.3077 755.073 20.2852C755.337 20.4249 755.676 20.4098 755.911 20.2006L755.921 20.2105C756.629 19.582 757.915 18.46 758.639 17.8566C758.928 17.6171 758.878 17.2331 758.648 16.9139ZM751.671 15.3181C751.108 16.3156 750.215 16.9289 749.218 16.9289C747.856 16.9289 747.063 15.8916 747.063 14.3605C747.063 11.3383 749.771 10.7897 752.335 10.7897V11.5577C752.335 12.9391 752.37 14.0913 751.671 15.3181Z" fill="url(#paint15_linear_314_4645)"/>
<path d="M1039.87 12.4864C1040.59 12.4864 1041.18 12.1126 1041.26 11.6295L1041.97 3.60017C1041.97 2.80655 1041.04 2.15503 1039.87 2.15503C1038.71 2.15503 1037.78 2.80654 1037.78 3.60031L1038.49 11.6295C1038.57 12.1124 1039.16 12.4864 1039.87 12.4864H1039.87ZM1035.53 14.9944C1035.89 14.3724 1035.87 13.6733 1035.49 13.3627L1028.89 8.73322C1028.2 8.33583 1027.17 8.81415 1026.59 9.82681C1026 10.8382 1026.11 11.9677 1026.79 12.3653L1034.1 15.7678C1034.55 15.9371 1035.18 15.6112 1035.53 14.9897L1035.53 14.9944ZM1044.22 14.9901C1044.58 15.6117 1045.2 15.9377 1045.65 15.7682L1052.96 12.3657C1053.65 11.9683 1053.75 10.8386 1053.17 9.82724C1052.58 8.81559 1051.55 8.33626 1050.86 8.73365L1044.26 13.3632C1043.89 13.6733 1043.86 14.373 1044.22 14.9948L1044.22 14.9901ZM1039.87 22.5163C1040.59 22.5163 1041.18 22.8871 1041.26 23.3705L1041.97 31.3987C1041.97 32.1948 1041.04 32.8449 1039.87 32.8449C1038.71 32.8449 1037.78 32.1948 1037.78 31.3987L1038.49 23.3705C1038.57 22.8871 1039.16 22.5163 1039.87 22.5163H1039.87ZM1044.22 20.0078C1044.58 19.3845 1045.2 19.0613 1045.65 19.2327L1052.96 22.6329C1053.65 23.0307 1053.75 24.1614 1053.17 25.1737C1052.58 26.182 1051.55 26.6626 1050.86 26.2658L1044.26 21.6406C1043.89 21.328 1043.86 20.628 1044.22 20.0065H1044.21M1035.53 20.007C1035.89 20.628 1035.87 21.328 1035.49 21.6412L1028.89 26.2663C1028.2 26.6631 1027.17 26.1825 1026.59 25.1741C1026 24.1619 1026.11 23.0312 1026.79 22.6334L1034.1 19.2331C1034.55 19.0618 1035.18 19.3849 1035.53 20.0084H1035.53" fill="url(#paint16_linear_314_4645)"/>
<path d="M998.243 21.626C998.243 21.8724 998.221 22.1266 998.154 22.3498C997.874 23.2767 996.914 24.0606 995.714 24.0606C994.712 24.0606 993.917 23.4919 993.917 22.2907C993.917 20.4524 995.941 19.9447 998.244 19.9574L998.243 21.6259V21.626ZM1001.86 18.4223C1001.86 15.3909 1000.56 12.7236 996.184 12.7236C993.938 12.7236 992.155 13.3546 991.181 13.917L991.894 16.354C992.784 15.7925 994.201 15.3276 995.543 15.3276C997.763 15.3215 998.126 16.5848 998.126 17.3933V17.5847C993.287 17.5776 990.228 19.2532 990.228 22.6666C990.228 24.7524 991.786 26.7059 994.494 26.7059C996.159 26.7059 997.552 26.0417 998.387 24.9766H998.469C998.469 24.9766 999.021 27.289 1002.07 26.4042C1001.91 25.4426 1001.86 24.416 1001.86 23.1816L1001.86 18.4223M926.456 8.5953C926.456 8.5953 929.618 21.5531 930.123 23.6561C930.712 26.1107 931.774 27.0144 934.833 26.4042L936.808 18.3709C937.309 16.3745 937.644 14.9512 937.966 12.9224H938.022C938.249 14.9726 938.57 16.3807 938.982 18.3775C938.982 18.3775 939.786 22.0247 940.198 23.9397C940.61 25.8542 941.759 27.0615 944.756 26.4042L949.461 8.59473H945.663L944.056 16.295C943.624 18.5355 943.232 20.2882 942.93 22.3374H942.876C942.602 20.3062 942.252 18.625 941.813 16.4416L940.142 8.59473H936.184L934.395 16.2437C933.888 18.5687 933.414 20.4453 933.113 22.4264H933.058C932.749 20.5609 932.338 18.2014 931.893 15.9519C931.893 15.9519 930.831 10.4807 930.457 8.59473L926.456 8.5953ZM956.644 21.626C956.644 21.8724 956.622 22.1266 956.554 22.3498C956.275 23.2767 955.314 24.0606 954.114 24.0606C953.112 24.0606 952.318 23.4919 952.318 22.2907C952.318 20.4524 954.341 19.9447 956.645 19.9574L956.644 21.6259V21.626ZM960.257 18.4223C960.257 15.3909 958.961 12.7236 954.586 12.7236C952.338 12.7236 950.554 13.3546 949.581 13.917L950.293 16.354C951.183 15.7925 952.6 15.3276 953.942 15.3276C956.164 15.3215 956.527 16.5848 956.527 17.3933V17.5847C951.686 17.5776 948.628 19.2532 948.628 22.6666C948.628 24.7524 950.186 26.7059 952.892 26.7059C954.558 26.7059 955.951 26.0417 956.787 24.9766H956.868C956.868 24.9766 957.422 27.289 960.468 26.4042C960.309 25.4426 960.257 24.416 960.257 23.1816V18.4223ZM966.286 22.6238V8.5953H962.669V26.4048H966.286V22.6238ZM1013.6 8.5953V21.733C1013.6 23.5452 1013.95 24.8134 1014.67 25.5896C1015.31 26.2682 1016.36 26.7074 1017.62 26.7074C1018.69 26.7074 1019.74 26.5032 1020.24 26.3192L1020.19 23.4933C1019.82 23.5836 1019.4 23.6567 1018.82 23.6567C1017.58 23.6567 1017.17 22.867 1017.17 21.241V16.2142H1020.32V12.8062H1017.17V8.5953H1013.6ZM1004.27 13.0257V26.4048H1008V19.5545C1008 19.1841 1008.02 18.8615 1008.08 18.5664C1008.36 17.1308 1009.45 16.2142 1011.03 16.2142C1011.46 16.2142 1011.77 16.2612 1012.11 16.3088V12.8062C1011.83 12.7502 1011.63 12.724 1011.28 12.724C1009.89 12.724 1008.31 13.6225 1007.64 15.5498H1007.54V13.0257H1004.27ZM968.818 13.0257V26.4048H972.454V18.5593C972.454 18.1911 972.497 17.8018 972.625 17.4642C972.926 16.6743 973.661 15.7492 974.834 15.7492C976.302 15.7492 976.987 16.9894 976.987 18.7792V26.4038H980.619V18.4627C980.619 18.1115 980.667 17.688 980.771 17.3783C981.07 16.4792 981.862 15.7482 982.952 15.7482C984.439 15.7482 985.153 16.9666 985.153 19.0733V26.4034H988.788V18.523C988.788 14.3677 986.678 12.7227 984.296 12.7227C983.242 12.7227 982.409 12.9867 981.656 13.4483C981.023 13.8379 980.456 14.39 979.961 15.1158H979.907C979.333 13.6739 977.981 12.7234 976.22 12.7234C973.957 12.7234 972.94 13.8705 972.323 14.8431H972.269V13.0253H968.818" fill="url(#paint17_linear_314_4645)"/>
<defs>
<linearGradient id="paint0_linear_314_4645" x1="1.16895" y1="17.3884" x2="29.0465" y2="17.3884" gradientUnits="userSpaceOnUse">
<stop stop-color="white"/>
<stop offset="1" stop-color="#D1CFC0"/>
</linearGradient>
<linearGradient id="paint1_linear_314_4645" x1="30.3232" y1="22.422" x2="48.7759" y2="22.422" gradientUnits="userSpaceOnUse">
<stop stop-color="white"/>
<stop offset="1" stop-color="#D1CFC0"/>
</linearGradient>
<linearGradient id="paint2_linear_314_4645" x1="50.4492" y1="22.422" x2="68.9017" y2="22.422" gradientUnits="userSpaceOnUse">
<stop stop-color="white"/>
<stop offset="1" stop-color="#D1CFC0"/>
</linearGradient>
<linearGradient id="paint3_linear_314_4645" x1="70.5762" y1="26.5201" x2="88.2399" y2="26.5201" gradientUnits="userSpaceOnUse">
<stop stop-color="white"/>
<stop offset="1" stop-color="#D1CFC0"/>
</linearGradient>
<linearGradient id="paint4_linear_314_4645" x1="96.7812" y1="22.4372" x2="113.654" y2="22.4372" gradientUnits="userSpaceOnUse">
<stop stop-color="white"/>
<stop offset="1" stop-color="#D1CFC0"/>
</linearGradient>
<linearGradient id="paint5_linear_314_4645" x1="90.9131" y1="17.5845" x2="94.9555" y2="17.5845" gradientUnits="userSpaceOnUse">
<stop stop-color="white"/>
<stop offset="1" stop-color="#D1CFC0"/>
</linearGradient>
<linearGradient id="paint6_linear_314_4645" x1="197.513" y1="8.56409" x2="197.513" y2="34.763" gradientUnits="userSpaceOnUse">
<stop stop-color="white"/>
<stop offset="1" stop-color="#D1CFC0"/>
</linearGradient>
<linearGradient id="paint7_linear_314_4645" x1="240.912" y1="0.236938" x2="240.912" y2="34.5942" gradientUnits="userSpaceOnUse">
<stop stop-color="white"/>
<stop offset="1" stop-color="#D1CFC0"/>
</linearGradient>
<linearGradient id="paint8_linear_314_4645" x1="374.605" y1="4.07324" x2="374.605" y2="30.9238" gradientUnits="userSpaceOnUse">
<stop stop-color="white"/>
<stop offset="1" stop-color="#D1CFC0"/>
</linearGradient>
<linearGradient id="paint9_linear_314_4645" x1="376.325" y1="4.07483" x2="376.325" y2="30.9268" gradientUnits="userSpaceOnUse">
<stop stop-color="white"/>
<stop offset="1" stop-color="#D1CFC0"/>
</linearGradient>
<linearGradient id="paint10_linear_314_4645" x1="360.215" y1="4.07324" x2="360.215" y2="27.6794" gradientUnits="userSpaceOnUse">
<stop stop-color="white"/>
<stop offset="1" stop-color="#D1CFC0"/>
</linearGradient>
<linearGradient id="paint11_linear_314_4645" x1="445.481" y1="4.9231" x2="445.481" y2="30.9074" gradientUnits="userSpaceOnUse">
<stop stop-color="white"/>
<stop offset="1" stop-color="#D1CFC0"/>
</linearGradient>
<linearGradient id="paint12_linear_314_4645" x1="614.773" y1="2.15503" x2="614.773" y2="32.8449" gradientUnits="userSpaceOnUse">
<stop stop-color="white"/>
<stop offset="1" stop-color="#D1CFC0"/>
</linearGradient>
<linearGradient id="paint13_linear_314_4645" x1="785.73" y1="34.763" x2="785.73" y2="19.2835" gradientUnits="userSpaceOnUse">
<stop stop-color="white"/>
<stop offset="1" stop-color="#D1CFC0"/>
</linearGradient>
<linearGradient id="paint14_linear_314_4645" x1="813.107" y1="32.2929" x2="813.107" y2="18.3893" gradientUnits="userSpaceOnUse">
<stop stop-color="white"/>
<stop offset="1" stop-color="#D1CFC0"/>
</linearGradient>
<linearGradient id="paint15_linear_314_4645" x1="799.171" y1="20.6295" x2="799.171" y2="-4.62815" gradientUnits="userSpaceOnUse">
<stop stop-color="white"/>
<stop offset="1" stop-color="#D1CFC0"/>
</linearGradient>
<linearGradient id="paint16_linear_314_4645" x1="1039.88" y1="2.15503" x2="1039.88" y2="32.8449" gradientUnits="userSpaceOnUse">
<stop stop-color="white"/>
<stop offset="1" stop-color="#D1CFC0"/>
</linearGradient>
<linearGradient id="paint17_linear_314_4645" x1="973.389" y1="8.59473" x2="973.389" y2="26.7074" gradientUnits="userSpaceOnUse">
<stop stop-color="white"/>
<stop offset="1" stop-color="#D1CFC0"/>
</linearGradient>
</defs>
</svg>
