<svg width="35" height="36" viewBox="0 0 35 36" fill="none" xmlns="http://www.w3.org/2000/svg">
<path d="M29.0188 0.732422H5.18194C2.32003 0.732422 0 3.10667 0 6.03545V30.4294C0 33.3582 2.32003 35.7324 5.18194 35.7324H29.0188C31.8808 35.7324 34.2008 33.3582 34.2008 30.4294V6.03545C34.2008 3.10667 31.8808 0.732422 29.0188 0.732422Z" fill="#F5F749"/>
<path d="M23.9245 11.8258C22.6694 11.2365 21.3236 10.8022 19.9164 10.5535C19.8908 10.5487 19.8651 10.5607 19.852 10.5847C19.6789 10.8998 19.4871 11.3108 19.3529 11.6338C17.8394 11.4019 16.3336 11.4019 14.8511 11.6338C14.7168 11.3036 14.5181 10.8998 14.3443 10.5847C14.3311 10.5615 14.3054 10.5495 14.2798 10.5535C12.8734 10.8014 11.5276 11.2356 10.2717 11.8258C10.2608 11.8306 10.2515 11.8386 10.2453 11.8489C7.69254 15.7519 6.99319 19.559 7.33626 23.3188C7.33779 23.3372 7.34789 23.3548 7.36186 23.366C9.04612 24.6318 10.6777 25.4002 12.2789 25.9096C12.3045 25.9176 12.3316 25.908 12.3479 25.8864C12.7267 25.3571 13.0643 24.7989 13.3538 24.212C13.3709 24.1776 13.3546 24.1368 13.3197 24.1232C12.7841 23.9153 12.2742 23.6618 11.7836 23.374C11.7448 23.3508 11.7417 23.294 11.7774 23.2668C11.8806 23.1877 11.9839 23.1053 12.0825 23.0221C12.1003 23.0069 12.1252 23.0037 12.1461 23.0133C15.3688 24.519 18.8576 24.519 22.0422 23.0133C22.0632 23.0029 22.088 23.0062 22.1066 23.0213C22.2052 23.1045 22.3085 23.1876 22.4125 23.2668C22.4481 23.294 22.4458 23.3508 22.407 23.374C21.9165 23.6674 21.4065 23.9153 20.8702 24.1224C20.8353 24.136 20.8198 24.1776 20.8369 24.2119C21.1326 24.7981 21.4702 25.3562 21.842 25.8856C21.8575 25.908 21.8854 25.9176 21.9111 25.9095C23.52 25.4002 25.1516 24.6317 26.8359 23.3659C26.8506 23.3548 26.86 23.3379 26.8615 23.3196C27.2719 18.9728 26.1736 15.1969 23.95 11.8497C23.9447 11.8386 23.9353 11.8306 23.9245 11.8258ZM13.8351 21.0295C12.8649 21.0295 12.0654 20.1179 12.0654 18.9984C12.0654 17.8789 12.8494 16.9673 13.8351 16.9673C14.8286 16.9673 15.6203 17.8869 15.6048 18.9984C15.6048 20.1179 14.8208 21.0295 13.8351 21.0295ZM20.3782 21.0295C19.408 21.0295 18.6085 20.1179 18.6085 18.9984C18.6085 17.8789 19.3924 16.9673 20.3782 16.9673C21.3716 16.9673 22.1633 17.8869 22.1478 18.9984C22.1478 20.1179 21.3717 21.0295 20.3782 21.0295Z" fill="#231F20"/>
</svg>
