<svg width="152" height="51" viewBox="0 0 152 51" fill="none" xmlns="http://www.w3.org/2000/svg">
<rect y="0.0488281" width="152" height="50" rx="10" fill="url(#paint0_linear_314_4895)"/>
<path d="M42.7774 18.3752C41.439 17.7613 40.0037 17.309 38.5029 17.0499C38.4756 17.0449 38.4483 17.0574 38.4343 17.0824C38.2496 17.4106 38.0452 17.8387 37.902 18.1752C36.2879 17.9336 34.682 17.9336 33.1011 18.1752C32.9578 17.8312 32.746 17.4106 32.5605 17.0824C32.5465 17.0583 32.5191 17.0457 32.4918 17.0499C30.992 17.3081 29.5567 17.7604 28.2173 18.3752C28.2057 18.3802 28.1958 18.3885 28.1892 18.3993C25.4667 22.4649 24.7209 26.4307 25.0868 30.3472C25.0884 30.3663 25.0992 30.3846 25.1141 30.3963C26.9103 31.7149 28.6503 32.5153 30.3579 33.0459C30.3852 33.0542 30.4141 33.0443 30.4315 33.0218C30.8355 32.4704 31.1955 31.889 31.5042 31.2776C31.5225 31.2418 31.505 31.1993 31.4678 31.1851C30.8967 30.9686 30.3528 30.7045 29.8297 30.4047C29.7883 30.3805 29.785 30.3213 29.8231 30.293C29.9332 30.2106 30.0433 30.1248 30.1484 30.0381C30.1675 30.0223 30.194 30.019 30.2163 30.029C33.6531 31.5974 37.3738 31.5974 40.7701 30.029C40.7924 30.0181 40.8189 30.0215 40.8388 30.0373C40.9439 30.1239 41.054 30.2105 41.1649 30.293C41.203 30.3213 41.2005 30.3805 41.1591 30.4046C40.636 30.7103 40.0921 30.9685 39.5202 31.1843C39.4829 31.1984 39.4664 31.2417 39.4846 31.2775C39.8 31.8881 40.1601 32.4695 40.5565 33.0209C40.5731 33.0442 40.6029 33.0542 40.6302 33.0459C42.3461 32.5153 44.086 31.7148 45.8823 30.3962C45.898 30.3846 45.908 30.3671 45.9096 30.348C46.3473 25.82 45.176 21.8868 42.8047 18.4001C42.7989 18.3885 42.789 18.3802 42.7774 18.3752ZM32.0176 27.9624C30.9828 27.9624 30.1303 27.0129 30.1303 25.8467C30.1303 24.6806 30.9663 23.731 32.0176 23.731C33.077 23.731 33.9214 24.6889 33.9048 25.8467C33.9048 27.0129 33.0687 27.9624 32.0176 27.9624ZM38.9954 27.9624C37.9608 27.9624 37.1082 27.0129 37.1082 25.8467C37.1082 24.6806 37.9442 23.731 38.9954 23.731C40.0549 23.731 40.8992 24.6889 40.8827 25.8467C40.8827 27.0129 40.055 27.9624 38.9954 27.9624Z" fill="#2A2A2A"/>
<path d="M69.122 25.7488C69.122 29.2948 66.386 32.0488 62.426 32.0488H57.512V19.4488H62.426C66.386 19.4488 69.122 22.1668 69.122 25.7128V25.7488ZM66.224 25.7848V25.7488C66.224 23.5168 64.694 21.9508 62.426 21.9508H60.284V29.5468H62.426C64.694 29.5468 66.224 28.0168 66.224 25.7848ZM74.2381 21.3388H71.3581V18.9088H74.2381V21.3388ZM74.1661 32.0488H71.4301V22.4008H74.1661V32.0488ZM83.8097 29.1148C83.8097 31.2568 82.2077 32.2288 80.1197 32.2288C78.7697 32.2288 77.2577 31.7788 75.9797 30.7708L77.1497 28.9708C78.1937 29.7268 79.2917 30.1228 80.1917 30.1228C80.9837 30.1228 81.3437 29.8348 81.3437 29.4028V29.3668C81.3437 28.7728 80.4077 28.5748 79.3457 28.2508C77.9957 27.8548 76.4657 27.2248 76.4657 25.3528V25.3168C76.4657 23.3548 78.0497 22.2568 79.9937 22.2568C81.2177 22.2568 82.5497 22.6708 83.5937 23.3728L82.5497 25.2628C81.5957 24.7048 80.6417 24.3628 79.9397 24.3628C79.2737 24.3628 78.9317 24.6508 78.9317 25.0288V25.0648C78.9317 25.6048 79.8497 25.8568 80.8937 26.2168C82.2437 26.6668 83.8097 27.3148 83.8097 29.0788V29.1148ZM94.2669 30.5008C93.3309 31.5268 92.2509 32.2648 90.3249 32.2648C87.4269 32.2648 85.3029 30.0328 85.3029 27.2788V27.2428C85.3029 24.4888 87.4089 22.2208 90.3609 22.2208C92.1789 22.2208 93.3129 22.8328 94.2129 23.8408L92.5389 25.6408C91.9269 24.9928 91.3149 24.5788 90.3429 24.5788C88.9749 24.5788 88.0029 25.7848 88.0029 27.2068V27.2428C88.0029 28.7188 88.9569 29.9068 90.4509 29.9068C91.3689 29.9068 91.9989 29.5108 92.6649 28.8808L94.2669 30.5008ZM105.762 27.2428C105.762 30.0148 103.53 32.2648 100.524 32.2648C97.5364 32.2648 95.3224 30.0508 95.3224 27.2788V27.2428C95.3224 24.4708 97.5544 22.2208 100.56 22.2208C103.548 22.2208 105.762 24.4348 105.762 27.2068V27.2428ZM103.062 27.2788V27.2428C103.062 25.8208 102.036 24.5788 100.524 24.5788C98.9584 24.5788 98.0224 25.7848 98.0224 27.2068V27.2428C98.0224 28.6648 99.0484 29.9068 100.56 29.9068C102.126 29.9068 103.062 28.7008 103.062 27.2788ZM113.558 25.0828H113.414C111.596 25.0828 110.48 26.1808 110.48 28.4848V32.0488H107.744V22.4008H110.48V24.3448C111.038 23.0128 111.938 22.1488 113.558 22.2208V25.0828ZM124.793 32.0488H122.057V30.6628C121.391 31.5628 120.473 32.2288 119.051 32.2288C116.801 32.2288 114.659 30.4648 114.659 27.2428V27.2068C114.659 23.9848 116.765 22.2208 119.051 22.2208C120.509 22.2208 121.409 22.8868 122.057 23.6608V18.9088H124.793V32.0488ZM122.093 27.2428V27.2068C122.093 25.6048 121.031 24.5428 119.753 24.5428C118.475 24.5428 117.395 25.5868 117.395 27.2068V27.2428C117.395 28.8448 118.475 29.9068 119.753 29.9068C121.031 29.9068 122.093 28.8448 122.093 27.2428Z" fill="#2A2A2A"/>
<defs>
<linearGradient id="paint0_linear_314_4895" x1="76" y1="0.0488281" x2="76" y2="50.0488" gradientUnits="userSpaceOnUse">
<stop stop-color="white"/>
<stop offset="1" stop-color="#D1CFC0"/>
</linearGradient>
</defs>
</svg>
