<svg width="145" height="51" viewBox="0 0 145 51" fill="none" xmlns="http://www.w3.org/2000/svg">
<rect y="0.334473" width="144.719" height="50" rx="10" fill="url(#paint0_linear_314_513)"/>
<mask id="mask0_314_513" style="mask-type:luminance" maskUnits="userSpaceOnUse" x="25" y="15" width="20" height="21">
<path d="M44.7194 25.3345C44.7194 19.8116 40.305 15.3345 34.8597 15.3345C29.4143 15.3345 25 19.8116 25 25.3345C25 30.8573 29.4143 35.3345 34.8597 35.3345C40.305 35.3345 44.7194 30.8573 44.7194 25.3345Z" fill="white"/>
</mask>
<g mask="url(#mask0_314_513)">
<path d="M34.8584 15.5425C29.4148 15.5425 25 20.0375 25 25.5825C25 30.0175 27.8248 33.78 31.744 35.1088C32.237 35.2012 32.4171 34.8912 32.4171 34.6251C32.4171 34.3862 32.4083 33.755 32.4033 32.9175C29.6613 33.5237 29.0819 31.5712 29.0819 31.5712C28.6346 30.4112 27.9875 30.1025 27.9875 30.1025C27.0916 29.48 28.0539 29.4925 28.0539 29.4925C29.0438 29.5637 29.5637 30.5275 29.5637 30.5275C30.4438 32.0612 31.8722 31.6187 32.4342 31.3612C32.5229 30.7125 32.778 30.27 33.0603 30.0187C30.8714 29.765 28.5692 28.9037 28.5692 25.0575C28.5692 23.9612 28.9537 23.065 29.5848 22.3625C29.4825 22.1087 29.1447 21.0875 29.681 19.7062C29.681 19.7062 30.5092 19.4362 32.3924 20.735C33.1786 20.5125 34.0216 20.4012 34.861 20.3975C35.6978 20.4025 36.5421 20.5125 37.3295 20.7362C39.2114 19.4375 40.0384 19.7075 40.0384 19.7075C40.5757 21.09 40.2381 22.11 40.137 22.3637C40.7693 23.0662 41.1502 23.9625 41.1502 25.0587C41.1502 28.915 38.8453 29.7637 36.6492 30.0125C37.0029 30.3225 37.3184 30.935 37.3184 31.8712C37.3184 33.2137 37.3062 34.2962 37.3062 34.6251C37.3062 34.8938 37.4837 35.2062 37.9839 35.1075C41.8969 33.7775 44.7194 30.0162 44.7194 25.5825C44.7194 20.0375 40.3048 15.5425 34.8584 15.5425Z" fill="white"/>
</g>
<path d="M67.6795 30.5525C66.3835 31.6505 64.6015 32.5505 62.2975 32.5505C58.3735 32.5505 55.6735 29.7965 55.6735 26.0705V26.0345C55.6735 22.4525 58.4635 19.5185 62.2795 19.5185C64.5475 19.5185 65.9155 20.1305 67.2295 21.2465L65.4835 23.3525C64.5115 22.5425 63.6475 22.0745 62.1895 22.0745C60.1735 22.0745 58.5715 23.8565 58.5715 25.9985V26.0345C58.5715 28.3385 60.1555 30.0305 62.3875 30.0305C63.3955 30.0305 64.2955 29.7785 64.9975 29.2745V27.4745H62.2075V25.0805H67.6795V30.5525ZM72.9927 21.6245H70.1127V19.1945H72.9927V21.6245ZM72.9207 32.3345H70.1847V22.6865H72.9207V32.3345ZM80.9084 31.9385C80.3324 32.2805 79.6664 32.4965 78.7484 32.4965C77.0744 32.4965 75.9404 31.8305 75.9404 29.5985V25.0265H74.7884V22.6865H75.9404V20.2205H78.6764V22.6865H80.9444V25.0265H78.6764V29.1485C78.6764 29.7785 78.9464 30.0845 79.5584 30.0845C80.0624 30.0845 80.5124 29.9585 80.9084 29.7425V31.9385ZM93.9051 32.3345H91.1331V27.2765H86.0211V32.3345H83.2491V19.7345H86.0211V24.7205H91.1331V19.7345H93.9051V32.3345ZM105.403 32.3345H102.667V30.9665C102.037 31.7765 101.227 32.5145 99.8408 32.5145C97.7708 32.5145 96.5648 31.1465 96.5648 28.9325V22.6865H99.3008V28.0685C99.3008 29.3645 99.9128 30.0305 100.957 30.0305C102.001 30.0305 102.667 29.3645 102.667 28.0685V22.6865H105.403V32.3345ZM117.986 27.5285C117.986 30.7505 115.88 32.5145 113.594 32.5145C112.136 32.5145 111.236 31.8485 110.588 31.0745V32.3345H107.852V19.1945H110.588V24.0725C111.254 23.1725 112.172 22.5065 113.594 22.5065C115.844 22.5065 117.986 24.2705 117.986 27.4925V27.5285ZM115.25 27.5285V27.4925C115.25 25.8905 114.17 24.8285 112.892 24.8285C111.614 24.8285 110.552 25.8905 110.552 27.4925V27.5285C110.552 29.1305 111.614 30.1925 112.892 30.1925C114.17 30.1925 115.25 29.1485 115.25 27.5285Z" fill="white"/>
<defs>
<linearGradient id="paint0_linear_314_513" x1="72.3597" y1="0.334473" x2="72.3597" y2="50.3345" gradientUnits="userSpaceOnUse">
<stop stop-color="#231F20"/>
<stop offset="1" stop-color="#514A4C"/>
</linearGradient>
</defs>
</svg>
