<svg width="145" height="51" viewBox="0 0 145 51" fill="none" xmlns="http://www.w3.org/2000/svg">
<rect y="0.0488281" width="144.719" height="50" rx="10" fill="url(#paint0_linear_447_179)"/>
<mask id="mask0_447_179" style="mask-type:luminance" maskUnits="userSpaceOnUse" x="25" y="15" width="20" height="21">
<path d="M44.7194 25.0488C44.7194 19.526 40.305 15.0488 34.8597 15.0488C29.4143 15.0488 25 19.526 25 25.0488C25 30.5717 29.4143 35.0488 34.8597 35.0488C40.305 35.0488 44.7194 30.5717 44.7194 25.0488Z" fill="white"/>
</mask>
<g mask="url(#mask0_447_179)">
<path d="M34.8584 15.2568C29.4148 15.2568 25 19.7518 25 25.2968C25 29.7318 27.8248 33.4943 31.744 34.8232C32.237 34.9155 32.4171 34.6055 32.4171 34.3395C32.4171 34.1005 32.4083 33.4693 32.4033 32.6318C29.6613 33.2381 29.0819 31.2856 29.0819 31.2856C28.6346 30.1256 27.9875 29.8168 27.9875 29.8168C27.0916 29.1943 28.0539 29.2068 28.0539 29.2068C29.0438 29.2781 29.5637 30.2418 29.5637 30.2418C30.4438 31.7756 31.8722 31.3331 32.4342 31.0756C32.5229 30.4268 32.778 29.9843 33.0603 29.7331C30.8714 29.4793 28.5692 28.6181 28.5692 24.7718C28.5692 23.6756 28.9537 22.7793 29.5848 22.0768C29.4825 21.8231 29.1447 20.8018 29.681 19.4206C29.681 19.4206 30.5092 19.1506 32.3924 20.4493C33.1786 20.2268 34.0216 20.1156 34.861 20.1118C35.6978 20.1168 36.5421 20.2268 37.3295 20.4506C39.2114 19.1518 40.0384 19.4218 40.0384 19.4218C40.5757 20.8043 40.2381 21.8243 40.137 22.0781C40.7693 22.7806 41.1502 23.6768 41.1502 24.7731C41.1502 28.6293 38.8453 29.4781 36.6492 29.7268C37.0029 30.0368 37.3184 30.6493 37.3184 31.5856C37.3184 32.9281 37.3062 34.0105 37.3062 34.3395C37.3062 34.6082 37.4837 34.9205 37.9839 34.8218C41.8969 33.4918 44.7194 29.7306 44.7194 25.2968C44.7194 19.7518 40.3048 15.2568 34.8584 15.2568Z" fill="#2A2A2A"/>
</g>
<path d="M67.6797 30.2668C66.3837 31.3648 64.6017 32.2648 62.2977 32.2648C58.3737 32.2648 55.6737 29.5108 55.6737 25.7848V25.7488C55.6737 22.1668 58.4637 19.2328 62.2797 19.2328C64.5477 19.2328 65.9157 19.8448 67.2297 20.9608L65.4837 23.0668C64.5117 22.2568 63.6477 21.7888 62.1897 21.7888C60.1737 21.7888 58.5717 23.5708 58.5717 25.7128V25.7488C58.5717 28.0528 60.1557 29.7448 62.3877 29.7448C63.3957 29.7448 64.2957 29.4928 64.9977 28.9888V27.1888H62.2077V24.7948H67.6797V30.2668ZM72.993 21.3388H70.113V18.9088H72.993V21.3388ZM72.921 32.0488H70.185V22.4008H72.921V32.0488ZM80.9086 31.6528C80.3326 31.9948 79.6666 32.2108 78.7486 32.2108C77.0746 32.2108 75.9406 31.5448 75.9406 29.3128V24.7408H74.7886V22.4008H75.9406V19.9348H78.6766V22.4008H80.9446V24.7408H78.6766V28.8628C78.6766 29.4928 78.9466 29.7988 79.5586 29.7988C80.0626 29.7988 80.5126 29.6728 80.9086 29.4568V31.6528ZM93.9053 32.0488H91.1333V26.9908H86.0213V32.0488H83.2493V19.4488H86.0213V24.4348H91.1333V19.4488H93.9053V32.0488ZM105.403 32.0488H102.667V30.6808C102.037 31.4908 101.227 32.2288 99.8411 32.2288C97.7711 32.2288 96.5651 30.8608 96.5651 28.6468V22.4008H99.3011V27.7828C99.3011 29.0788 99.9131 29.7448 100.957 29.7448C102.001 29.7448 102.667 29.0788 102.667 27.7828V22.4008H105.403V32.0488ZM117.986 27.2428C117.986 30.4648 115.88 32.2288 113.594 32.2288C112.136 32.2288 111.236 31.5628 110.588 30.7888V32.0488H107.852V18.9088H110.588V23.7868C111.254 22.8868 112.172 22.2208 113.594 22.2208C115.844 22.2208 117.986 23.9848 117.986 27.2068V27.2428ZM115.25 27.2428V27.2068C115.25 25.6048 114.17 24.5428 112.892 24.5428C111.614 24.5428 110.552 25.6048 110.552 27.2068V27.2428C110.552 28.8448 111.614 29.9068 112.892 29.9068C114.17 29.9068 115.25 28.8628 115.25 27.2428Z" fill="#2A2A2A"/>
<defs>
<linearGradient id="paint0_linear_447_179" x1="72.3597" y1="0.0488281" x2="72.3597" y2="50.0488" gradientUnits="userSpaceOnUse">
<stop stop-color="white"/>
<stop offset="1" stop-color="#D1CFC0"/>
</linearGradient>
</defs>
</svg>
