<svg width="183" height="44" viewBox="0 0 183 44" fill="none" xmlns="http://www.w3.org/2000/svg">
<path d="M46.6935 13.3754L46.5025 13.3104L9.51164 0.927252C8.21638 0.493745 6.82472 0.43654 5.49824 0.762277C4.17177 1.08801 2.96491 1.78333 2.01778 2.76749C1.07065 3.75166 0.422111 4.98429 0.147466 6.32228C-0.127178 7.66026 -0.0166621 9.0487 0.466183 10.3264C0.899812 11.465 1.61436 12.4754 2.54336 13.2637C3.47236 14.0519 4.58563 14.5924 5.77963 14.8349L25.7731 18.9003L10.3898 23.5958C6.17803 24.8154 6.1821 30.8809 10.4629 32.0639L27.5375 36.6985L18.9392 43.2762L38.8596 38.7027C42.8762 37.7595 43.0713 31.9989 39.0059 30.8525L38.14 30.6045L27.9766 27.7872L46.596 22.555C47.5324 22.2886 48.3658 21.7439 48.9857 20.9933C49.6057 20.2426 49.9831 19.3213 50.0678 18.3514C50.1419 17.2643 49.8498 16.1837 49.2383 15.2819C48.6268 14.38 47.7309 13.7089 46.6935 13.3754Z" fill="#FF5E3C"/>
<path d="M60.6377 27.4457L70.1588 17.2823H60.9792V11.542H79.7897V16.2822L70.1954 26.4456H79.7897V32.2307H60.6377V27.4457Z" fill="white"/>
<path d="M80.3262 26.2992V26.222C80.3262 21.9045 83.5785 19.7174 88.4285 19.7174C90.1203 19.6994 91.8024 19.9745 93.4004 20.5304V20.1849C93.4004 18.0058 92.0629 16.7822 89.27 16.7822C87.3019 16.7822 85.3535 17.1732 83.5378 17.9327L82.0458 12.8469C84.695 11.7388 87.5452 11.192 90.4164 11.2411C94.1281 11.2411 96.6486 12.1192 98.2951 13.7616C99.8603 15.2942 100.511 17.4204 100.511 20.3394V32.2306H93.3638V30.0475C92.5943 30.9021 91.6492 31.5804 90.5932 32.0358C89.5371 32.4912 88.3952 32.713 87.2454 32.6859C83.3183 32.6859 80.3262 30.393 80.3262 26.2992ZM93.4817 24.734V23.7746C92.5657 23.4228 91.5928 23.2422 90.6116 23.242C88.4732 23.242 87.2861 24.234 87.2861 25.8032V25.8805C87.2861 27.2952 88.3593 28.1368 89.8473 28.1368C91.9857 28.1368 93.4817 26.8358 93.4817 24.734Z" fill="white"/>
<path d="M102.69 11.5419H109.955V14.2942C111.37 12.5745 113.126 11.0825 116.224 11.0825C121.103 11.0825 125.4 15.1723 125.4 21.7866V21.8639C125.4 28.5921 121.155 32.6859 116.261 32.6859C113.126 32.6859 111.329 31.2712 109.955 29.7019V38.3286H102.69V11.5419ZM118.281 21.9045V21.8273C118.281 19.075 116.33 17.1237 114.037 17.1237C111.667 17.1237 109.793 19.075 109.793 21.8273V21.9045C109.793 24.6568 111.667 26.6041 114.037 26.6041C116.338 26.6041 118.281 24.6934 118.281 21.9045Z" fill="white"/>
<path d="M127.005 11.5419H134.266V14.2942C135.68 12.5745 137.441 11.0825 140.539 11.0825C145.417 11.0825 149.714 15.1723 149.714 21.7866V21.8639C149.714 28.5921 145.47 32.6859 140.575 32.6859C137.441 32.6859 135.644 31.2712 134.266 29.7019V38.3286H127.005V11.5419ZM142.604 21.9045V21.8273C142.604 19.075 140.652 17.1237 138.359 17.1237C135.989 17.1237 134.115 19.075 134.115 21.8273V21.9045C134.115 24.6568 135.989 26.6041 138.359 26.6041C140.64 26.6041 142.604 24.6934 142.604 21.9045Z" fill="white"/>
<path d="M151.507 4.31396H158.735V32.2309H151.507V4.31396Z" fill="white"/>
<path d="M175.404 11.542H182.859L175.29 31.7306C173.452 36.6091 171.578 38.4588 167.411 38.4588C165.084 38.4703 162.798 37.8492 160.797 36.6619L163 31.5761C163.946 32.2094 165.037 32.5914 166.171 32.686C166.506 32.7098 166.842 32.6445 167.144 32.4967C167.446 32.3489 167.704 32.1239 167.891 31.8445L159.805 11.542H167.374L171.505 24.0064L175.404 11.542Z" fill="white"/>
</svg>
