<svg width="189" height="44" viewBox="0 0 189 44" fill="none" xmlns="http://www.w3.org/2000/svg">
<path d="M48.09 13.2049L47.8932 13.1379L9.79611 0.384461C8.46211 -0.0620105 7.02883 -0.120927 5.66268 0.214552C4.29654 0.550031 3.05358 1.26614 2.07812 2.27974C1.10267 3.29334 0.434735 4.56284 0.151877 5.94084C-0.130982 7.31884 -0.0171604 8.74881 0.480125 10.0647C0.926723 11.2373 1.66264 12.278 2.61943 13.0898C3.57621 13.9017 4.72278 14.4583 5.95248 14.708L26.5439 18.895L10.7005 23.7309C6.3628 24.987 6.36699 31.234 10.7759 32.4524L28.3611 37.2255L19.5057 44L40.0218 39.2897C44.1585 38.3183 44.3594 32.3854 40.1725 31.2047L39.2807 30.9493L28.8133 28.0477L47.9895 22.6591C48.954 22.3846 49.8123 21.8237 50.4508 21.0506C51.0893 20.2775 51.4779 19.3287 51.5652 18.3298C51.6415 17.2101 51.3407 16.0972 50.7109 15.1684C50.0811 14.2396 49.1584 13.5484 48.09 13.2049Z" fill="#FF5E3C"/>
<path d="M62.4512 27.696L72.257 17.2286H62.8029V11.3166H82.1759V16.1986L72.2947 26.666H82.1759V32.624H62.4512V27.696Z" fill="#231F20"/>
<path d="M82.7285 26.5153V26.4357C82.7285 21.9892 86.0781 19.7366 91.0731 19.7366C92.8155 19.7181 94.548 20.0014 96.1938 20.574V20.2181C96.1938 17.9739 94.8163 16.7136 91.9398 16.7136C89.9129 16.7136 87.9062 17.1164 86.0362 17.8985L84.4996 12.6606C87.2281 11.5194 90.1635 10.9563 93.1205 11.0068C96.9432 11.0068 99.5391 11.9112 101.235 13.6027C102.847 15.1812 103.517 17.371 103.517 20.3772V32.624H96.1561V30.3756C95.3636 31.2559 94.3902 31.9544 93.3026 32.4234C92.215 32.8924 91.0388 33.1208 89.8547 33.093C85.8101 33.093 82.7285 30.7315 82.7285 26.5153ZM96.2775 24.9033V23.9152C95.3341 23.5528 94.3321 23.3669 93.3215 23.3667C91.1192 23.3667 89.8966 24.3883 89.8966 26.0045V26.084C89.8966 27.5411 91.0019 28.4078 92.5344 28.4078C94.7367 28.4078 96.2775 27.0679 96.2775 24.9033Z" fill="#231F20"/>
<path d="M105.761 11.3166H113.243V14.1512C114.7 12.3801 116.509 10.8435 119.699 10.8435C124.723 10.8435 129.149 15.0556 129.149 21.8677V21.9473C129.149 28.8767 124.778 33.093 119.737 33.093C116.509 33.093 114.658 31.6359 113.243 30.0197V38.9045H105.761V11.3166ZM121.818 21.9892V21.9096C121.818 19.075 119.808 17.0653 117.447 17.0653C115.006 17.0653 113.075 19.075 113.075 21.9096V21.9892C113.075 24.8237 115.006 26.8293 117.447 26.8293C119.816 26.8293 121.818 24.8614 121.818 21.9892Z" fill="#231F20"/>
<path d="M130.804 11.3166H138.282V14.1512C139.739 12.3801 141.552 10.8435 144.742 10.8435C149.766 10.8435 154.192 15.0556 154.192 21.8677V21.9473C154.192 28.8767 149.821 33.093 144.78 33.093C141.552 33.093 139.701 31.6359 138.282 30.0197V38.9045H130.804V11.3166ZM146.869 21.9892V21.9096C146.869 19.075 144.859 17.0653 142.498 17.0653C140.057 17.0653 138.127 19.075 138.127 21.9096V21.9892C138.127 24.8237 140.057 26.8293 142.498 26.8293C144.847 26.8293 146.869 24.8614 146.869 21.9892Z" fill="#231F20"/>
<path d="M156.038 3.87219H163.482V32.624H156.038V3.87219Z" fill="#231F20"/>
<path d="M180.649 11.3166H188.328L180.532 32.109C178.64 37.1334 176.709 39.0385 172.418 39.0385C170.021 39.0503 167.667 38.4106 165.606 37.1878L167.875 31.9499C168.849 32.6021 169.973 32.9955 171.141 33.093C171.486 33.1175 171.832 33.0502 172.143 32.898C172.454 32.7458 172.719 32.5141 172.912 32.2263L164.584 11.3166H172.38L176.634 24.1538L180.649 11.3166Z" fill="#231F20"/>
</svg>
