<svg width="35" height="36" viewBox="0 0 35 36" fill="none" xmlns="http://www.w3.org/2000/svg">
<path d="M29.8177 0.732422H5.98077C3.11886 0.732422 0.798828 3.10667 0.798828 6.03545V30.4294C0.798828 33.3582 3.11886 35.7324 5.98077 35.7324H29.8177C32.6796 35.7324 34.9996 33.3582 34.9996 30.4294V6.03545C34.9996 3.10667 32.6796 0.732422 29.8177 0.732422Z" fill="#F5F749"/>
<mask id="mask0_325_8083" style="mask-type:luminance" maskUnits="userSpaceOnUse" x="8" y="8" width="20" height="21">
<path d="M27.7451 18.2325C27.7451 12.6678 23.337 8.15674 17.8994 8.15674C12.4618 8.15674 8.05371 12.6678 8.05371 18.2325C8.05371 23.7972 12.4618 28.3083 17.8994 28.3083C23.337 28.3083 27.7451 23.7972 27.7451 18.2325Z" fill="white"/>
</mask>
<g mask="url(#mask0_325_8083)">
<path d="M27.7451 18.2325C27.7451 12.6678 23.337 8.15674 17.8994 8.15674C12.4618 8.15674 8.05371 12.6678 8.05371 18.2325C8.05371 23.7972 12.4618 28.3083 17.8994 28.3083C23.337 28.3083 27.7451 23.7972 27.7451 18.2325Z" fill="#F5F749"/>
<path d="M17.8981 8.36646C12.4622 8.36646 8.05371 12.8955 8.05371 18.4825C8.05371 22.9511 10.8745 26.7421 14.7882 28.081C15.2804 28.1741 15.4603 27.8617 15.4603 27.5937C15.4603 27.3529 15.4514 26.7169 15.4465 25.8731C12.7084 26.4839 12.1298 24.5166 12.1298 24.5166C11.6831 23.3479 11.037 23.0368 11.037 23.0368C10.1423 22.4095 11.1033 22.4221 11.1033 22.4221C12.0917 22.4939 12.611 23.465 12.611 23.465C13.4898 25.0104 14.9162 24.5645 15.4774 24.3051C15.566 23.6514 15.8207 23.2055 16.1026 22.9524C13.9168 22.6967 11.6179 21.8289 11.6179 17.9535C11.6179 16.849 12.0018 15.9459 12.632 15.2381C12.5299 14.9825 12.1925 13.9535 12.7281 12.5618C12.7281 12.5618 13.5551 12.2897 15.4356 13.5983C16.2207 13.3741 17.0625 13.262 17.9007 13.2582C18.7363 13.2633 19.5794 13.3741 20.3657 13.5996C22.245 12.291 23.0707 12.563 23.0707 12.563C23.6073 13.956 23.2702 14.9837 23.1692 15.2394C23.8006 15.9472 24.1809 16.8502 24.1809 17.9548C24.1809 21.8403 21.8794 22.6955 19.6864 22.9461C20.0395 23.2584 20.3546 23.8756 20.3546 24.8189C20.3546 26.1716 20.3424 27.2622 20.3424 27.5937C20.3424 27.8644 20.5196 28.1791 21.0192 28.0797C24.9266 26.7396 27.7451 22.9499 27.7451 18.4825C27.7451 12.8955 23.3368 8.36646 17.8981 8.36646Z" fill="#231F20"/>
</g>
</svg>
