<svg width="142" height="51" viewBox="0 0 142 51" fill="none" xmlns="http://www.w3.org/2000/svg">
<rect y="0.0488281" width="142" height="50" rx="10" fill="url(#paint0_linear_314_4898)"/>
<path d="M45 24.7363C45 23.1738 43.75 21.9238 42.1875 21.9238C41.5 21.9238 40.875 22.1738 40.375 22.6113C38.8125 21.7363 36.9375 21.2988 35 21.2988C33.0625 21.2988 31.1875 21.7363 29.625 22.6113C29.125 22.1738 28.5 21.9238 27.8125 21.9238C26.25 21.9238 25 23.1738 25 24.7363C25 25.6738 25.5 26.6113 26.25 27.1113V27.5488C26.25 30.9863 30.1875 33.7988 35 33.7988C39.8125 33.7988 43.75 30.9863 43.75 27.5488C43.75 27.4238 43.75 27.2363 43.75 27.1113C44.5 26.6113 45 25.6738 45 24.7363ZM30.625 26.9238C30.625 25.8613 31.4375 25.0488 32.5 25.0488C33.5625 25.0488 34.375 25.8613 34.375 26.9238C34.375 27.9863 33.5625 28.7988 32.5 28.7988C31.4375 28.7988 30.625 27.9863 30.625 26.9238ZM38.5 30.5488C37.8125 31.1113 36.25 31.2988 35 31.2988C33.75 31.2988 32.1875 31.1113 31.5 30.5488C31.25 30.3613 31.1875 29.9238 31.375 29.6738C31.5625 29.4238 32 29.3613 32.25 29.5488C32.5 29.7363 33.4375 30.0488 35 30.0488C36.5625 30.0488 37.5 29.7363 37.75 29.5488C38 29.3613 38.4375 29.3613 38.625 29.6738C38.8125 29.9863 38.8125 30.2988 38.5 30.5488ZM37.5 28.7988C36.4375 28.7988 35.625 27.9863 35.625 26.9238C35.625 25.8613 36.4375 25.0488 37.5 25.0488C38.5625 25.0488 39.375 25.8613 39.375 26.9238C39.375 27.9863 38.5625 28.7988 37.5 28.7988Z" fill="#2A2A2A"/>
<path d="M35.0002 22.5488C34.8752 22.5488 34.8127 22.5488 34.7502 22.4863C34.4377 22.3613 34.3127 21.9863 34.5002 21.6738L36.3752 17.9238C36.5002 17.6113 36.8752 17.4863 37.1877 17.6738L39.6877 18.9238C40.0002 19.0488 40.1252 19.4238 39.9377 19.7363C39.8127 20.0488 39.4377 20.1738 39.1252 19.9863L37.1877 18.9863L35.5627 22.1738C35.4377 22.4238 35.2502 22.5488 35.0002 22.5488Z" fill="#2A2A2A"/>
<path d="M40.625 21.9238C39.5625 21.9238 38.75 21.1113 38.75 20.0488C38.75 18.9863 39.5625 18.1738 40.625 18.1738C41.6875 18.1738 42.5 18.9863 42.5 20.0488C42.5 21.1113 41.6875 21.9238 40.625 21.9238Z" fill="#2A2A2A"/>
<path d="M67.402 32.0488H64.162L61.462 28.0168H59.284V32.0488H56.512V19.4488H62.272C65.242 19.4488 67.024 21.0148 67.024 23.6068V23.6428C67.024 25.6768 65.926 26.9548 64.324 27.5488L67.402 32.0488ZM64.216 23.7868V23.7508C64.216 22.5628 63.388 21.9508 62.038 21.9508H59.284V25.5688H62.092C63.442 25.5688 64.216 24.8488 64.216 23.7868ZM78.056 27.4948C78.056 27.7648 78.038 27.9268 78.02 28.1788H71.306C71.576 29.4208 72.44 30.0688 73.664 30.0688C74.582 30.0688 75.248 29.7808 76.004 29.0788L77.57 30.4648C76.67 31.5808 75.374 32.2648 73.628 32.2648C70.73 32.2648 68.588 30.2308 68.588 27.2788V27.2428C68.588 24.4888 70.55 22.2208 73.358 22.2208C76.58 22.2208 78.056 24.7228 78.056 27.4588V27.4948ZM75.392 26.4688C75.23 25.2448 74.51 24.4168 73.358 24.4168C72.224 24.4168 71.486 25.2268 71.27 26.4688H75.392ZM89.7971 32.0488H87.0611V30.6628C86.3951 31.5628 85.4771 32.2288 84.0551 32.2288C81.8051 32.2288 79.6631 30.4648 79.6631 27.2428V27.2068C79.6631 23.9848 81.7691 22.2208 84.0551 22.2208C85.5131 22.2208 86.4131 22.8868 87.0611 23.6608V18.9088H89.7971V32.0488ZM87.0971 27.2428V27.2068C87.0971 25.6048 86.0351 24.5428 84.7571 24.5428C83.4791 24.5428 82.3991 25.5868 82.3991 27.2068V27.2428C82.3991 28.8448 83.4791 29.9068 84.7571 29.9068C86.0351 29.9068 87.0971 28.8448 87.0971 27.2428ZM101.944 32.0488H99.2076V30.6628C98.5416 31.5628 97.6236 32.2288 96.2016 32.2288C93.9516 32.2288 91.8096 30.4648 91.8096 27.2428V27.2068C91.8096 23.9848 93.9156 22.2208 96.2016 22.2208C97.6596 22.2208 98.5596 22.8868 99.2076 23.6608V18.9088H101.944V32.0488ZM99.2436 27.2428V27.2068C99.2436 25.6048 98.1816 24.5428 96.9036 24.5428C95.6256 24.5428 94.5456 25.5868 94.5456 27.2068V27.2428C94.5456 28.8448 95.6256 29.9068 96.9036 29.9068C98.1816 29.9068 99.2436 28.8448 99.2436 27.2428ZM107.322 21.3388H104.442V18.9088H107.322V21.3388ZM107.25 32.0488H104.514V22.4008H107.25V32.0488ZM115.238 31.6528C114.662 31.9948 113.996 32.2108 113.078 32.2108C111.404 32.2108 110.27 31.5448 110.27 29.3128V24.7408H109.118V22.4008H110.27V19.9348H113.006V22.4008H115.274V24.7408H113.006V28.8628C113.006 29.4928 113.276 29.7988 113.888 29.7988C114.392 29.7988 114.842 29.6728 115.238 29.4568V31.6528Z" fill="#2A2A2A"/>
<defs>
<linearGradient id="paint0_linear_314_4898" x1="71" y1="0.0488281" x2="71" y2="50.0488" gradientUnits="userSpaceOnUse">
<stop stop-color="white"/>
<stop offset="1" stop-color="#D1CFC0"/>
</linearGradient>
</defs>
</svg>
