<svg width="35" height="36" viewBox="0 0 35 36" fill="none" xmlns="http://www.w3.org/2000/svg">
<path d="M29.1058 0.732422H5.26885C2.40695 0.732422 0.0869141 3.10667 0.0869141 6.03545V30.4294C0.0869141 33.3582 2.40695 35.7324 5.26885 35.7324H29.1058C31.9677 35.7324 34.2877 33.3582 34.2877 30.4294V6.03545C34.2877 3.10667 31.9677 0.732422 29.1058 0.732422Z" fill="#F5F749"/>
<path d="M22.0433 12.329C21.2129 11.3408 20.7776 10.0638 20.8121 8.76359L17.7081 8.68701V9.00522V22.2824C16.8722 26.0937 11.4823 25.0992 12.022 21.2215C12.323 19.4501 14.1826 18.3603 15.8351 18.9764V15.7352C12.2373 15.0942 8.8278 18.0246 8.86356 21.7581C9.1781 29.8548 20.526 29.8559 20.8408 21.7581C20.7615 21.4683 20.8059 16.0725 20.7947 15.6175C22.206 16.5163 23.8484 16.9655 25.5116 16.9082V13.5607C23.9741 13.5607 22.8006 13.1423 22.0433 12.329Z" fill="#231F20"/>
</svg>
